<?xml version="1.0" encoding="utf-8"?>
<!-- Generator: Adobe Illustrator 19.0.0, SVG Export Plug-In . SVG Version: 6.00 Build 0)  -->
<svg version="1.1" id="Warstwa_1" xmlns="http://www.w3.org/2000/svg" xmlns:xlink="http://www.w3.org/1999/xlink" x="0px" y="0px"
	 width="842.9px" height="242px" viewBox="0 0 842.9 242" enable-background="new 0 0 842.9 242" xml:space="preserve">
<g id="XMLID_1_">
	<path id="XMLID_3_" fill="#FFFFFF" d="M32.8,83c16.6,0,22.5,12.5,22.5,12.5h0.3c0,0-0.4-2.1-0.4-4.9V60.8c0-3.2,1.6-4.7,4.7-4.7
		h4.4c3.2,0,4.7,1.6,4.7,4.7v91.7c0,3.2-1.6,4.7-4.7,4.7h-3.7c-3.2,0-4.7-1.6-4.7-4.4v-4.2c0-2,0.3-3.6,0.3-3.6h-0.3
		c0,0-6.2,13.9-23.9,13.9c-19.6,0-32-15.5-32-38C0,97.9,13.6,83,32.8,83z M34.7,146.9c10.7,0,20.9-7.6,20.9-26.1
		c0-12.9-6.7-25.7-20.6-25.7c-11.3,0-20.8,9.3-20.8,25.8C14.2,136.7,22.6,146.9,34.7,146.9z"/>
	<path id="XMLID_8_" fill="#FFFFFF" d="M123.5,83c21.6,0,39.1,15.9,39.1,37.8c0,22.1-17.5,38.1-39.1,38.1c-21.6,0-39-16.1-39-38.1
		C84.5,98.9,101.9,83,123.5,83z M123.5,146.9c13.8,0,24.9-10.9,24.9-26.1c0-15-11.2-25.8-24.9-25.8c-13.6,0-24.9,10.7-24.9,25.8
		C98.6,136,109.9,146.9,123.5,146.9z"/>
	<path id="XMLID_11_" fill="#FFFFFF" d="M211.9,83c12.2,0,20.1,4.7,23.9,7.7c2.4,1.6,2.6,4,0.9,6.4l-1.4,2.1
		c-1.7,2.6-3.7,2.7-6.4,1.1c-3-2.1-8.6-5.4-16.2-5.4c-14.6,0-25.2,10.9-25.2,25.8c0,14.8,10.6,26.1,25.5,26.1c8.7,0,15-4,18.5-6.6
		c2.6-1.7,4.7-1.4,6.4,1.3l1.1,2.2c1.4,2.4,1,4.7-1.3,6.3c-4,3.3-12.8,8.9-25.8,8.9c-22.8,0-38.7-16.2-38.7-38
		C173.3,99.5,189.3,83,211.9,83z"/>
	<path id="XMLID_13_" fill="#FFFFFF" d="M250.2,144.6l1.4-2c1.9-2.4,3.7-2.6,6.6-1c3.3,2.2,9.3,5.9,17.8,5.9
		c7.2,0,12.3-3.4,12.3-9.6c0-14.2-37.4-9.5-37.4-34c0-13.8,12-20.9,26.2-20.9c10,0,16.6,3.4,20.1,5.6c2.6,1.3,3,3.7,1.6,6.3
		l-1.3,2.1c-1.4,2.6-3.6,2.9-6.3,1.6c-3-1.7-7.9-4.2-14.8-4.2s-12.2,3-12.2,9.2c0,14.5,37.4,9.3,37.4,34c0,12.3-10.5,21.4-26.1,21.4
		c-12,0-20.4-4.9-24.4-7.9C248.8,149.5,248.6,147.1,250.2,144.6z"/>
	<path id="XMLID_15_" fill="#FFFFFF" d="M399.8,172.1c3.4,1.3,8.5,3.2,15.8,3.2c12.3,0,22.8-5.6,22.8-20.3v-6.3
		c0-2.3,0.4-4.6,0.4-4.6h-0.3c-4.2,7.6-11,12.3-21.5,12.3c-20.4,0-32.7-16.1-32.7-37.3c0-20.6,11.5-36.1,32.4-36.1
		c17.9,0,22.6,12.2,22.6,12.2h0.3c0,0-0.3-0.9-0.3-2.3v-4.2c0-2.4,1.6-4,4.7-4h3.4c3.2,0,4.7,1.6,4.7,4.7v64.8
		c0,23.9-18.3,33.1-36,33.1c-7.9,0-15.5-1.6-21.1-4c-3-1.3-3.7-3.3-2.4-6.3l1-2.4C395.1,171.7,396.8,171,399.8,172.1z M438.7,119.6
		c0-19.1-9.3-24.5-20.1-24.5c-13,0-20.1,9.2-20.1,23.5c0,15.6,7.9,25.8,20.9,25.8C429.5,144.3,438.7,138.3,438.7,119.6z"/>
	<path id="XMLID_18_" fill="#FFFFFF" d="M472.5,89.5c0-3.2,1.7-4.7,4.7-4.7h4c3.2,0,4.7,1.6,4.7,4.7v8.3c0,3-0.4,5.4-0.4,5.4h0.3
		c3.2-9.6,11.3-19.1,22.2-19.1c3.3,0,4.6,1.6,4.6,4.7v4c0,3.2-1.9,4.7-5.2,4.7c-14.2,0-21.1,15.3-21.1,29.7v25.2
		c0,3.2-1.6,4.7-4.7,4.7h-4.4c-3,0-4.7-1.6-4.7-4.7V89.5z"/>
	<path id="XMLID_20_" fill="#FFFFFF" d="M555,83c21.6,0,39.1,15.9,39.1,37.8c0,22.1-17.5,38.1-39.1,38.1s-39-16.1-39-38.1
		C516,98.9,533.4,83,555,83z M555,146.9c13.8,0,24.9-10.9,24.9-26.1c0-15-11.2-25.8-24.9-25.8c-13.6,0-24.9,10.7-24.9,25.8
		C530.1,136,541.4,146.9,555,146.9z"/>
	<path id="XMLID_23_" fill="#FFFFFF" d="M608.6,89.5c0-3.2,1.6-4.7,4.7-4.7h4.4c3,0,4.6,1.6,4.6,4.7V128c0,10,2.1,18.1,13.6,18.1
		c14.9,0,23.6-13,23.6-27.4V89.5c0-3.2,1.6-4.7,4.7-4.7h4.4c3,0,4.7,1.6,4.7,4.7v63.1c0,3.2-1.7,4.7-4.7,4.7h-4
		c-3.2,0-4.7-1.6-4.7-4.7v-6.4c0-2.2,0.4-4.2,0.4-4.2h-0.3c-3.2,7.2-12.8,17.1-26.9,17.1c-16.3,0-24.6-8.6-24.6-27.8V89.5z"/>
	<path id="XMLID_25_" fill="#FFFFFF" d="M693.6,89.5c0-3.2,1.7-4.7,4.7-4.7h4c3.2,0,4.7,1.6,4.7,4.7v6.4c0,2.1-0.4,4.2-0.4,4.2h0.3
		c2.9-6.3,11.6-17.1,27.5-17.1c17.1,0,24.8,9.3,24.8,27.8v41.7c0,3.2-1.6,4.7-4.7,4.7H750c-3,0-4.7-1.6-4.7-4.7V114
		c0-10.2-2-18.2-13.6-18.2c-14,0-24.2,11.8-24.2,26.8v30c0,3.2-1.6,4.7-4.7,4.7h-4.4c-3,0-4.7-1.6-4.7-4.7V89.5z"/>
	<path id="XMLID_27_" fill="#FFFFFF" d="M806.7,83c16.6,0,22.5,12.5,22.5,12.5h0.3c0,0-0.4-2.1-0.4-4.9V60.8c0-3.2,1.6-4.7,4.7-4.7
		h4.4c3.2,0,4.7,1.6,4.7,4.7v91.7c0,3.2-1.6,4.7-4.7,4.7h-3.7c-3.2,0-4.7-1.6-4.7-4.4v-4.2c0-2,0.3-3.6,0.3-3.6h-0.3
		c0,0-6.2,13.9-23.9,13.9c-19.6,0-32-15.5-32-38C773.8,97.9,787.4,83,806.7,83z M808.5,146.9c10.7,0,20.9-7.6,20.9-26.1
		c0-12.9-6.7-25.7-20.6-25.7c-11.3,0-20.8,9.3-20.8,25.8C788,136.7,796.5,146.9,808.5,146.9z"/>
</g>
<path id="XMLID_5_" fill="#FFFFFF" d="M432.4,242h-164c-3.3,0-6-2.7-6-6v-49c0-3.3,2.7-6,6-6s6,2.7,6,6v43h152v-23c0-3.3,2.7-6,6-6
	s6,2.7,6,6v29C438.4,239.3,435.7,242,432.4,242z"/>
<path id="XMLID_30_" fill="#FFFFFF" d="M432.4,61c-1.6,0-3.3-0.7-4.5-2l-42.2-47H274.4v23c0,3.3-2.7,6-6,6s-6-2.7-6-6V6
	c0-3.3,2.7-6,6-6h120c1.7,0,3.3,0.7,4.5,2l44,49c2.2,2.5,2,6.3-0.5,8.5C435.3,60.5,433.8,61,432.4,61z"/>
</svg>
