<?xml version="1.0" encoding="utf-8"?>
<!-- Generator: Adobe Illustrator 19.0.0, SVG Export Plug-In . SVG Version: 6.00 Build 0)  -->
<svg version="1.1" id="Warstwa_1" xmlns="http://www.w3.org/2000/svg" xmlns:xlink="http://www.w3.org/1999/xlink" x="0px" y="0px"
	 width="240px" height="560px" viewBox="0 0 240 560" enable-background="new 0 0 240 560" xml:space="preserve">
<g id="XMLID_73_">
	<g id="XMLID_75_">
		<defs>
			<rect id="XMLID_76_" width="240" height="560"/>
		</defs>
		<clipPath id="XMLID_2_">
			<use xlink:href="#XMLID_76_"  overflow="visible"/>
		</clipPath>
		<rect id="XMLID_77_" x="-6.3" y="-5.2" clip-path="url(#XMLID_2_)" fill="#045485" width="252.6" height="570.4"/>
	</g>
</g>
<g id="XMLID_68_">
	<g id="XMLID_70_">
		<defs>
			<path id="XMLID_71_" d="M30,80.8c0-2.2,1.8-4,4-4h92c2.2,0,4,1.8,4,4c0,2.2-1.8,4-4,4H34C31.8,84.8,30,83,30,80.8z"/>
		</defs>
		<clipPath id="XMLID_4_">
			<use xlink:href="#XMLID_71_"  overflow="visible"/>
		</clipPath>
		<rect id="XMLID_72_" x="25" y="71.8" opacity="0.5" clip-path="url(#XMLID_4_)" fill="#DDDDDD" width="110" height="18"/>
	</g>
</g>
<g id="XMLID_63_">
	<g id="XMLID_65_">
		<defs>
			<path id="XMLID_66_" d="M30,109.8c0-1.7,1.3-3,3-3h94c1.7,0,3,1.3,3,3c0,1.7-1.3,3-3,3H33C31.4,112.8,30,111.4,30,109.8z"/>
		</defs>
		<clipPath id="XMLID_9_">
			<use xlink:href="#XMLID_66_"  overflow="visible"/>
		</clipPath>
		<rect id="XMLID_67_" x="25" y="101.8" opacity="0.2" clip-path="url(#XMLID_9_)" fill="#FFFFFF" width="110" height="16"/>
	</g>
</g>
<g id="XMLID_58_">
	<g id="XMLID_60_">
		<defs>
			<path id="XMLID_61_" d="M30,129.8c0-1.7,1.3-3,3-3h74c1.7,0,3,1.3,3,3c0,1.7-1.3,3-3,3H33C31.4,132.8,30,131.4,30,129.8z"/>
		</defs>
		<clipPath id="XMLID_14_">
			<use xlink:href="#XMLID_61_"  overflow="visible"/>
		</clipPath>
		<rect id="XMLID_62_" x="25" y="121.8" opacity="0.2" clip-path="url(#XMLID_14_)" fill="#FFFFFF" width="90" height="16"/>
	</g>
</g>
<g id="XMLID_53_">
	<g id="XMLID_55_">
		<defs>
			<path id="XMLID_56_" d="M30,320.8c0-2.2,1.8-4,4-4h92c2.2,0,4,1.8,4,4c0,2.2-1.8,4-4,4H34C31.8,324.8,30,323,30,320.8z"/>
		</defs>
		<clipPath id="XMLID_19_">
			<use xlink:href="#XMLID_56_"  overflow="visible"/>
		</clipPath>
		<rect id="XMLID_57_" x="25" y="311.8" opacity="0.5" clip-path="url(#XMLID_19_)" fill="#DDDDDD" width="110" height="18"/>
	</g>
</g>
<g id="XMLID_48_">
	<g id="XMLID_50_">
		<defs>
			<path id="XMLID_51_" d="M30,349.8c0-1.7,1.3-3,3-3h94c1.7,0,3,1.3,3,3c0,1.7-1.3,3-3,3H33C31.4,352.8,30,351.4,30,349.8z"/>
		</defs>
		<clipPath id="XMLID_24_">
			<use xlink:href="#XMLID_51_"  overflow="visible"/>
		</clipPath>
		<rect id="XMLID_52_" x="25" y="341.8" opacity="0.2" clip-path="url(#XMLID_24_)" fill="#FFFFFF" width="110" height="16"/>
	</g>
</g>
<g id="XMLID_43_">
	<g id="XMLID_45_">
		<defs>
			<path id="XMLID_46_" d="M30,369.8c0-1.7,1.3-3,3-3h74c1.7,0,3,1.3,3,3c0,1.7-1.3,3-3,3H33C31.4,372.8,30,371.4,30,369.8z"/>
		</defs>
		<clipPath id="XMLID_29_">
			<use xlink:href="#XMLID_46_"  overflow="visible"/>
		</clipPath>
		<rect id="XMLID_47_" x="25" y="361.8" opacity="0.2" clip-path="url(#XMLID_29_)" fill="#FFFFFF" width="90" height="16"/>
	</g>
</g>
<g id="XMLID_38_">
	<g id="XMLID_40_">
		<defs>
			<path id="XMLID_41_" d="M30,389.8c0-1.7,1.3-3,3-3h34c1.7,0,3,1.3,3,3c0,1.7-1.3,3-3,3h-34C31.4,392.8,30,391.4,30,389.8z"/>
		</defs>
		<clipPath id="XMLID_34_">
			<use xlink:href="#XMLID_41_"  overflow="visible"/>
		</clipPath>
		<rect id="XMLID_42_" x="25" y="381.8" opacity="0.2" clip-path="url(#XMLID_34_)" fill="#FFFFFF" width="50" height="16"/>
	</g>
</g>
<g id="XMLID_33_">
	<g id="XMLID_35_">
		<defs>
			<path id="XMLID_36_" d="M30,149.8c0-1.7,1.3-3,3-3h114c1.7,0,3,1.3,3,3c0,1.7-1.3,3-3,3H33C31.4,152.8,30,151.4,30,149.8z"/>
		</defs>
		<clipPath id="XMLID_39_">
			<use xlink:href="#XMLID_36_"  overflow="visible"/>
		</clipPath>
		<rect id="XMLID_37_" x="25" y="141.8" opacity="0.2" clip-path="url(#XMLID_39_)" fill="#FFFFFF" width="130" height="16"/>
	</g>
</g>
<g id="XMLID_28_">
	<g id="XMLID_30_">
		<defs>
			<path id="XMLID_31_" d="M30,169.8c0-1.7,1.3-3,3-3h54c1.7,0,3,1.3,3,3c0,1.7-1.3,3-3,3H33C31.4,172.8,30,171.4,30,169.8z"/>
		</defs>
		<clipPath id="XMLID_44_">
			<use xlink:href="#XMLID_31_"  overflow="visible"/>
		</clipPath>
		<rect id="XMLID_32_" x="25" y="161.8" opacity="0.2" clip-path="url(#XMLID_44_)" fill="#FFFFFF" width="70" height="16"/>
	</g>
</g>
<g id="XMLID_23_">
	<g id="XMLID_25_">
		<defs>
			<path id="XMLID_26_" d="M30,189.8c0-1.7,1.3-3,3-3h74c1.7,0,3,1.3,3,3c0,1.7-1.3,3-3,3H33C31.4,192.8,30,191.4,30,189.8z"/>
		</defs>
		<clipPath id="XMLID_49_">
			<use xlink:href="#XMLID_26_"  overflow="visible"/>
		</clipPath>
		<rect id="XMLID_27_" x="25" y="181.8" opacity="0.2" clip-path="url(#XMLID_49_)" fill="#FFFFFF" width="90" height="16"/>
	</g>
</g>
<g id="XMLID_18_">
	<g id="XMLID_20_">
		<defs>
			<path id="XMLID_21_" d="M30,209.8c0-1.7,1.3-3,3-3h94c1.7,0,3,1.3,3,3c0,1.7-1.3,3-3,3H33C31.4,212.8,30,211.4,30,209.8z"/>
		</defs>
		<clipPath id="XMLID_54_">
			<use xlink:href="#XMLID_21_"  overflow="visible"/>
		</clipPath>
		<rect id="XMLID_22_" x="25" y="201.8" opacity="0.2" clip-path="url(#XMLID_54_)" fill="#FFFFFF" width="110" height="16"/>
	</g>
</g>
<g id="XMLID_13_">
	<g id="XMLID_15_">
		<defs>
			<path id="XMLID_16_" d="M30,229.8c0-1.7,1.3-3,3-3h34c1.7,0,3,1.3,3,3c0,1.7-1.3,3-3,3h-34C31.4,232.8,30,231.4,30,229.8z"/>
		</defs>
		<clipPath id="XMLID_59_">
			<use xlink:href="#XMLID_16_"  overflow="visible"/>
		</clipPath>
		<rect id="XMLID_17_" x="25" y="221.8" opacity="0.2" clip-path="url(#XMLID_59_)" fill="#FFFFFF" width="50" height="16"/>
	</g>
</g>
<g id="XMLID_8_">
	<g id="XMLID_10_">
		<defs>
			<path id="XMLID_11_" d="M30,249.8c0-1.7,1.3-3,3-3h74c1.7,0,3,1.3,3,3c0,1.7-1.3,3-3,3H33C31.4,252.8,30,251.4,30,249.8z"/>
		</defs>
		<clipPath id="XMLID_64_">
			<use xlink:href="#XMLID_11_"  overflow="visible"/>
		</clipPath>
		<rect id="XMLID_12_" x="25" y="241.8" opacity="0.2" clip-path="url(#XMLID_64_)" fill="#FFFFFF" width="90" height="16"/>
	</g>
</g>
<g id="XMLID_3_">
	<g id="XMLID_5_">
		<defs>
			<path id="XMLID_6_" d="M30,269.8c0-1.7,1.3-3,3-3h54c1.7,0,3,1.3,3,3c0,1.7-1.3,3-3,3H33C31.4,272.8,30,271.4,30,269.8z"/>
		</defs>
		<clipPath id="XMLID_69_">
			<use xlink:href="#XMLID_6_"  overflow="visible"/>
		</clipPath>
		<rect id="XMLID_7_" x="25" y="261.8" opacity="0.2" clip-path="url(#XMLID_69_)" fill="#FFFFFF" width="70" height="16"/>
	</g>
</g>
</svg>
